<?xml version="1.0" encoding="utf-8"?>
<!-- Generator: Adobe Illustrator 25.0.0, SVG Export Plug-In . SVG Version: 6.00 Build 0)  -->
<svg version="1.1" id="Слой_1" xmlns="http://www.w3.org/2000/svg" xmlns:xlink="http://www.w3.org/1999/xlink" x="0px" y="0px"
	 viewBox="0 0 110 68" style="enable-background:new 0 0 110 68;" xml:space="preserve">
<style type="text/css">
	.st0{fill:url(#SVGID_1_);}
</style>
<desc>Created with Snap</desc>
<g>
	<linearGradient id="SVGID_1_" gradientUnits="userSpaceOnUse" x1="46.0502" y1="10.7774" x2="70.4066" y2="59.1339">
		<stop  offset="0" style="stop-color:#D32F2F"/>
		<stop  offset="0.2882" style="stop-color:#D83635"/>
		<stop  offset="0.7005" style="stop-color:#E74946"/>
		<stop  offset="0.8788" style="stop-color:#EF5350"/>
	</linearGradient>
	<path class="st0" d="M101.5,23c1.9,0,3.5-1.6,3.5-3.5c0-1.9-1.6-3.5-3.5-3.5S98,17.6,98,19.5c0,0.4,0.1,0.8,0.2,1.2l-10.2,8.6
		l-12.9-7.6c0.1-0.3,0.1-0.6,0.1-0.9c0-2.1-1.7-3.9-3.9-3.9c-0.9,0-1.7,0.3-2.3,0.8L57.5,8.5c0.1-0.2,0.1-0.4,0.1-0.7
		c0-1.6-1.3-2.9-2.9-2.9s-2.9,1.3-2.9,2.9c0,0.7,0.3,1.4,0.7,1.9l-5.8,12.5c-0.3,0-0.5-0.1-0.8-0.1c-0.9,0-1.7,0.2-2.4,0.6
		l-15.4-6.9c0-0.2,0.1-0.5,0.1-0.7c0-2.4-1.9-4.3-4.3-4.3c-2.4,0-4.3,1.9-4.3,4.3s1.9,4.3,4.3,4.3c1.4,0,2.6-0.6,3.3-1.6L42,24.5
		c-0.4,0.7-0.6,1.5-0.6,2.3c0,0.9,0.3,1.6,0.7,2.3l-8.2,8.2c-1.1-0.8-2.5-1.3-4-1.3c-2.6,0-4.9,1.5-6.1,3.7l-0.1,0c0,0,0,0,0,0
		l-11.5-5.2c0-0.1,0-0.3,0-0.4c0-2-1.6-3.6-3.6-3.6S5,32.1,5,34.1c0,2,1.6,3.6,3.6,3.6c1.1,0,2-0.5,2.7-1.2L23,41.8c0,0,0,0,0,0
		l0.1,0c-0.1,0.3-0.1,0.7-0.1,1.1c0,2,0.8,3.7,2.1,5l0,0c0,0,0,0,0,0l-6,8.8c-0.2,0-0.3,0-0.5,0c-1.5,0-2.7,1.2-2.7,2.7
		c0,1.5,1.2,2.7,2.7,2.7s2.7-1.2,2.7-2.7c0-0.5-0.1-1-0.4-1.4l5.4-7.9l0.7-0.9c0.9,0.4,1.9,0.6,2.9,0.6c1.9,0,3.6-0.8,4.9-2l7,5
		c-0.2,0.5-0.3,1.1-0.3,1.6c0,2.5,2.1,4.6,4.6,4.6c2.2,0,4-1.5,4.5-3.5l15.9-4.9c1,1.8,2.9,3.1,5.1,3.1c1.3,0,2.4-0.4,3.4-1.1
		l7.1,6.6c0,0.2-0.1,0.4-0.1,0.6c0,1.7,1.4,3.1,3.1,3.1s3.1-1.4,3.1-3.1c0-1.7-1.4-3.1-3.1-3.1c-0.7,0-1.4,0.2-1.9,0.6L76.4,51
		c0.6-0.9,0.9-1.9,0.9-3.1c0-2.8-1.7-5.2-4.7-5.7V24.6c1-0.2,1.1-0.5,1.5-0.9l13.3,7.8l11.2,15.7c-0.1,0.2-0.1,0.5-0.1,0.7
		c0,1.1,0.9,2,2,2s2-0.9,2-2s-0.9-2-2-2c0,0-0.1,0-0.1,0l-10.7-15l9.9-8.5C100.2,22.8,100.8,23,101.5,23z M65.7,48
		c0,0.2,0,0.4,0,0.6l-15.3,4.7c-0.5-2-2.3-3.4-4.5-3.4c-1.1,0-2.1,0.5-2.9,1.1l-7-5c0.4-0.9,0.7-1.9,0.7-3c0-1.5-0.5-2.9-1.3-4
		l8.2-8.2c0.7,0.4,1.4,0.7,2.3,0.7c1.6,0,3.1-0.9,3.9-2.1l17.2,14.9C66.2,45.2,65.7,46.5,65.7,48z M70.6,42.3
		c-1,0.1-1.1,0.3-1.6,0.5L50.7,26.9c0-0.1,0-0.1,0-0.2c0-1.5-0.7-2.8-1.8-3.6l5.8-12.4c0,0,0.1,0,0.1,0c0.5,0,1-0.1,1.4-0.4
		l11.6,9.2c-0.2,0.4-0.1,0.9-0.1,1.3c0,1.8,0.9,3.2,2.9,3.7V42.3z"/>
</g>
</svg>
